# xmcd
#
# Track frame offsets: 
#        150
#        10066
#        21608
#        30292
#        40003
#        50623
#        61060
#        71019
#        81663
#        91910
#        102308
#        113381
#        123212
#        135452
#        145613
#        155426
#        165182
#        175024
#        184885
#        194537
#        204030
#        213701
#        223770
#        233598
#        243054
#        252295
#
# Disc length: 3558 seconds
#
# Revision: 1
# Processed by: cddbd v1.5.2PL0 Copyright (c) Steve Scherf et al.
# Submitted via: ExactAudioCopyFreeDBPlugin 1.0
#
DISCID=550de41a
DTITLE=Bill Black's Combo - The Untouchable Sound:  "Bill Black's Comb
DTITLE=o Plays The Blues" and "Bill Black's Combo Plays Tunes By Chuck B
DTITLE=erry"
DYEAR=2001
DGENRE=Rhythm and Blues
TTITLE0=I'll Never Be Free
TTITLE1=Birth of the Blues
TTITLE2=Midnight
TTITLE3=Blues in My Heart
TTITLE4=Blues in The Night
TTITLE5=Basin Street Blues
TTITLE6=Comin' On
TTITLE7=St. Louis Blues
TTITLE8=Got You on My Mind
TTITLE9=Wabash Blues
TTITLE10=Peter Gunn
TTITLE11=Weary Blues
TTITLE12=Soft Winds
TTITLE13=School Days
TTITLE14=Sweet Little Sixteen
TTITLE15=Roll Over Beethoven
TTITLE16=Maybellene
TTITLE17=Carol
TTITLE18=Little Queenie
TTITLE19=Brown-Eyed Handsome Man
TTITLE20=Nadine
TTITLE21=Thirty Days
TTITLE22=Johnny B. Goode
TTITLE23=Reelin' and Rockin'
TTITLE24=Memphis, Tennessee
TTITLE25=Boo Ray
EXTD=
EXTT0=
EXTT1=
EXTT2=
EXTT3=
EXTT4=
EXTT5=
EXTT6=
EXTT7=
EXTT8=
EXTT9=
EXTT10=
EXTT11=
EXTT12=
EXTT13=
EXTT14=
EXTT15=
EXTT16=
EXTT17=
EXTT18=
EXTT19=
EXTT20=
EXTT21=
EXTT22=
EXTT23=
EXTT24=
EXTT25=
PLAYORDER=
